HIERARCHY
ROOT hip
{
  OFFSET 0 0 0
  CHANNELS 6 Xposition Yposition Zposition Zrotation Yrotation Xrotation
  JOINT abdomen
  {
    OFFSET 0 20.6881 -0.73152
    CHANNELS 3 Zrotation Xrotation Yrotation
    JOINT chest
    {
      OFFSET 0 11.7043 -0.48768
      CHANNELS 3 Zrotation Xrotation Yrotation
      JOINT neck
      {
        OFFSET 0 22.1894 -2.19456
        CHANNELS 3 Zrotation Xrotation Yrotation
        JOINT head
        {
          OFFSET -0.24384 7.07133 1.2192
          CHANNELS 3 Zrotation Xrotation Yrotation
          JOINT leftEye
          {
            OFFSET 4.14528 8.04674 8.04672
            CHANNELS 3 Zrotation Xrotation Yrotation
            End Site
            {
              OFFSET 1 0 0
            }
          }
          JOINT rightEye
          {
            OFFSET -3.6576 8.04674 8.04672
            CHANNELS 3 Zrotation Xrotation Yrotation
            End Site
            {
              OFFSET 1 0 0
            }
          }
        }
      }
      JOINT rCollar
      {
        OFFSET -2.68224 19.2634 -4.8768
        CHANNELS 3 Zrotation Xrotation Yrotation
        JOINT rShldr
        {
          OFFSET -8.77824 -1.95073 1.46304
          CHANNELS 3 Zrotation Xrotation Yrotation
          JOINT rForeArm
          {
            OFFSET -28.1742 -1.7115 0.48768
            CHANNELS 3 Zrotation Xrotation Yrotation
            JOINT rHand
            {
              OFFSET -22.5879 0.773209 7.07136
              CHANNELS 3 Zrotation Xrotation Yrotation
              JOINT rThumb1
              {
                OFFSET -1.2192 -0.487915 3.41376
                CHANNELS 3 Zrotation Xrotation Yrotation
                JOINT rThumb2
                {
                  OFFSET -3.37035 -0.52449 3.41376
                  CHANNELS 3 Zrotation Xrotation Yrotation
                  End Site
                  {
                    OFFSET -1.78271 -1.18214 1.43049
                  }
                }
              }
              JOINT rIndex1
              {
                OFFSET -7.75947 0.938293 5.60832
                CHANNELS 3 Zrotation Xrotation Yrotation
                JOINT rIndex2
                {
                  OFFSET -2.54057 -0.884171 1.56538
                  CHANNELS 3 Zrotation Xrotation Yrotation
                  End Site
                  {
                    OFFSET -1.62519 -0.234802 1.16502
                  }
                }
              }
              JOINT rMid1
              {
                OFFSET -8.24714 1.18213 3.41376
                CHANNELS 3 Zrotation Xrotation Yrotation
                JOINT rMid2
                {
                  OFFSET -3.10165 -0.590103 1.0647
                  CHANNELS 3 Zrotation Xrotation Yrotation
                  End Site
                  {
                    OFFSET -2.48547 -0.328903 0.83742
                  }
                }
              }
              JOINT rRing1
              {
                OFFSET -8.82822 0.546677 1.51678
                CHANNELS 3 Zrotation Xrotation Yrotation
                JOINT rRing2
                {
                  OFFSET -2.60934 -0.819778 -0.0198488
                  CHANNELS 3 Zrotation Xrotation Yrotation
                  End Site
                  {
                    OFFSET -2.33842 -0.294052 0.168128
                  }
                }
              }
              JOINT rPinky1
              {
                OFFSET -8.27202 -0.0477905 -0.4584
                CHANNELS 3 Zrotation Xrotation Yrotation
                JOINT rPinky2
                {
                  OFFSET -1.82734 -0.647385 -0.700984
                  CHANNELS 3 Zrotation Xrotation Yrotation
                  End Site
                  {
                    OFFSET -1.69225 -0.51767 -0.607171
                  }
                }
              }
            }
          }
        }
      }
      JOINT lCollar
      {
        OFFSET 2.68224 19.2634 -4.8768
        CHANNELS 3 Zrotation Xrotation Yrotation
        JOINT lShldr
        {
          OFFSET 8.77824 -1.95073 1.46304
          CHANNELS 3 Zrotation Xrotation Yrotation
          JOINT lForeArm
          {
            OFFSET 28.1742 -1.7115 0.48768
            CHANNELS 3 Zrotation Xrotation Yrotation
            JOINT lHand
            {
              OFFSET 22.5879 0.773209 7.07136
              CHANNELS 3 Zrotation Xrotation Yrotation
              JOINT lThumb1
              {
                OFFSET 1.2192 -0.487915 3.41376
                CHANNELS 3 Zrotation Xrotation Yrotation
                JOINT lThumb2
                {
                  OFFSET 3.37035 -0.52449 3.41376
                  CHANNELS 3 Zrotation Xrotation Yrotation
                  End Site
                  {
                    OFFSET 1.78271 -1.18214 1.43049
                  }
                }
              }
              JOINT lIndex1
              {
                OFFSET 7.75947 0.938293 5.60832
                CHANNELS 3 Zrotation Xrotation Yrotation
                JOINT lIndex2
                {
                  OFFSET 2.54057 -0.884171 1.56538
                  CHANNELS 3 Zrotation Xrotation Yrotation
                  End Site
                  {
                    OFFSET 1.62519 -0.234802 1.16502
                  }
                }
              }
              JOINT lMid1
              {
                OFFSET 8.24714 1.18213 3.41376
                CHANNELS 3 Zrotation Xrotation Yrotation
                JOINT lMid2
                {
                  OFFSET 3.10165 -0.590103 1.0647
                  CHANNELS 3 Zrotation Xrotation Yrotation
                  End Site
                  {
                    OFFSET 2.48547 -0.328903 0.83742
                  }
                }
              }
              JOINT lRing1
              {
                OFFSET 8.82822 0.546677 1.51678
                CHANNELS 3 Zrotation Xrotation Yrotation
                JOINT lRing2
                {
                  OFFSET 2.60934 -0.819778 -0.0198488
                  CHANNELS 3 Zrotation Xrotation Yrotation
                  End Site
                  {
                    OFFSET 2.33842 -0.294052 0.168128
                  }
                }
              }
              JOINT lPinky1
              {
                OFFSET 8.27202 -0.0477905 -0.4584
                CHANNELS 3 Zrotation Xrotation Yrotation
                JOINT lPinky2
                {
                  OFFSET 1.82734 -0.647385 -0.700984
                  CHANNELS 3 Zrotation Xrotation Yrotation
                  End Site
                  {
                    OFFSET 1.69225 -0.51767 -0.607171
                  }
                }
              }
            }
          }
        }
      }
    }
  }
  JOINT rButtock
  {
    OFFSET -8.77824 4.35084 1.2192
    CHANNELS 3 Zrotation Xrotation Yrotation
    JOINT rThigh
    {
      OFFSET 0 -1.70687 -2.19456
      CHANNELS 3 Zrotation Xrotation Yrotation
      JOINT rShin
      {
        OFFSET 0 -36.8199 0.73152
        CHANNELS 3 Zrotation Xrotation Yrotation
        JOINT rFoot
        {
          OFFSET 0.73152 -45.1104 -5.12064
          CHANNELS 3 Zrotation Xrotation Yrotation
          End Site
          {
            OFFSET -1.1221 -3.69964 12.103
          }
        }
      }
    }
  }
  JOINT lButtock
  {
    OFFSET 8.77824 4.35084 1.2192
    CHANNELS 3 Zrotation Xrotation Yrotation
    JOINT lThigh
    {
      OFFSET 0 -1.70687 -2.19456
      CHANNELS 3 Zrotation Xrotation Yrotation
      JOINT lShin
      {
        OFFSET 0 -36.8199 0.73152
        CHANNELS 3 Zrotation Xrotation Yrotation
        JOINT lFoot
        {
          OFFSET -0.73152 -45.1104 -5.12064
          CHANNELS 3 Zrotation Xrotation Yrotation
          End Site
          {
            OFFSET 1.1221 -3.69964 12.103
          }
        }
      }
    }
  }
}
MOTION
Frames:	5
Frame Time:	0.03333
-42.4023 71.6354 -35.627399999999994 -27.623535 78.945602 -17.406491 8.003369 13.838689 87.580161 -8.883068 -4.043791 -84.494131 -8.051789 22.134577 -80.803711 39.572015 -1.615833 106.40351 3.4e-05 0.0 0.001792 -0.000319 0.0 -0.003688 0.163416 -0.990026 -0.218486 -115.219323 -16.359083 -172.233143 -173.746518 -15.600945 -72.612922 -10.392977 -27.913995 -7.119854 -2.608469 2.554516 0.45784 11.096816 -14.5229 -6.664893 -166.82143 -43.973641 122.062672 11.055179 5.764202 -8.548229 0.047435 -0.138699 -0.025791 3.093527 0.407561 0.026127 -145.118497 0.267362 -179.213259 11.19398 13.761101 -7.37652 0.100048 0.257632 0.093912 -146.687447 9.547 -143.176485 155.41715 -2.951662 -161.717893 45.659347 5.534415 12.999988 74.723708 26.169595 103.645503 -43.798591 -60.359902 -32.464263 5.433942 5.264838 -1.077834 122.064857 -16.136912 -108.502174 7.776859 11.470306 -4.90067 -9.58596 0.916291 0.444403 -7.904062 -24.807623 3.013179 16.142852 39.981191 -12.829519 145.120334 0.267263 179.213444 -11.902628 29.602651 5.638446 26.561471 -38.862535 25.603458 147.209755 13.604776 143.820875 179.994428 75.74849 0.003812 177.435455 27.339646 -108.134319 -64.471186 -21.679879 49.555777 -16.848495 -25.165213 33.993323 0.0 -0.000659 0.000289 32.811793 -45.642564 -0.0 -113.621409 66.816733 -162.893226 -12.577786 1.20889 -61.934925
-42.1218 71.9464 -37.4171 -112.520366 85.079993 -102.864038 6.380483 13.798336 87.034295 -8.756624 -4.012667 -84.541824 6.308116 11.574938 30.318593 -23.487528 -20.876475 -14.81018 0.000309 0.0 0.004328 -7.2e-05 -0.0 0.002181 0.482601 -3.000799 -0.653455 171.156962 76.660097 -108.964155 -160.607189 60.857107 25.043685 -159.954593 12.674258 138.81014 -89.136575 38.42775 50.29884 -121.711886 -16.01661 76.12864 -50.387066 40.826013 40.024688 -67.698737 50.430164 47.786648 -164.100406 -17.546974 144.578695 179.864695 -48.670563 140.904794 -74.842465 72.961317 92.827874 -95.416946 82.906658 104.463377 0.21156 0.552113 0.192651 14.854357 42.937036 8.614064 147.865733 28.55993 -152.690004 9.937081 -66.487611 -39.37984 157.016996 -79.536082 93.782193 7.501374 33.857935 -2.495928 -115.061894 -50.178261 -56.085216 32.981448 -8.139643 12.842262 152.315102 -18.94794 -121.430376 -172.944279 -53.920999 -109.137259 -5.892141 -18.352144 2.543634 167.381857 -17.301515 -144.216923 -0.00121 0.063565 -0.020954 153.358374 20.315754 -168.899607 152.199548 37.329857 147.583686 151.051402 20.953164 143.747941 179.997726 75.7509 0.002347 172.590987 32.337765 -0.0 19.028927 67.596878 91.225945 -63.275869 -22.512809 -151.117595 -0.002602 -0.00137 -0.0 35.151619 -43.001754 26.181116 162.91111 81.952154 -20.125905 159.208652 75.613133 108.592659
-41.7925 72.5135 -39.9491 -168.640886 74.502627 -159.151064 3.825974 12.71825 70.065621 -6.499459 -6.791926 -69.180803 -8.251255 22.074765 -80.799977 41.961831 -0.470167 93.685699 0.000497 -0.0 -0.001969 0.000941 0.0 0.003094 -9.651555 34.836149 11.199455 67.295415 15.964652 11.082281 -84.941565 -30.731238 63.547859 -176.109572 -66.385735 160.537198 -93.743386 37.964011 53.548825 19.34755 -27.658207 23.146478 -46.208629 39.653308 36.317703 -155.702854 2.446687 110.900157 149.549593 -77.525861 117.454195 7.108451 -12.334944 -0.97966 0.000873 -0.018433 -0.006355 11.571183 -36.414872 -4.388143 -146.228208 15.470106 -142.747388 -14.539848 -29.80324 -16.5262 -0.163389 -0.989984 0.2189 -59.148159 25.703785 -23.06372 138.163422 46.003148 -64.137163 -105.524175 -62.327067 -96.46847 172.745613 -10.423841 -89.92911 177.110209 -13.603659 -93.614655 151.351575 -17.15867 -121.133589 134.227629 32.279065 -108.317517 -12.028249 -37.299382 3.219025 170.236076 -25.695833 -144.261503 69.296684 72.946053 -87.017391 159.839306 0.069421 -176.173373 126.973269 -26.391439 124.681813 -1.917262 -2.836152 2.593157 -6.1e-05 -0.000712 -9.2e-05 -13.33204 -37.508352 -8.422452 26.700354 63.817894 76.858105 122.165337 60.832083 158.128163 0.00016 -0.000712 8e-05 34.654646 -44.698187 180.0 68.711936 -56.913722 -154.084614 108.581981 -83.7267 -163.281341
-42.3245 72.9039 -43.3703 -176.016121 60.417056 -165.823115 5.117127 11.091388 -0.0 2.412732 -8.777992 -0.85254 -6.659911 27.846559 -119.719349 42.471577 23.808643 115.739033 -0.004966 -0.0 0.001708 0.000725 0.0 0.001049 -159.21987 -48.028419 170.415769 -53.779409 -4.593042 -6.059057 89.772934 -30.785032 -99.024756 -53.73604 43.238612 34.595163 -78.492974 38.70267 42.741456 109.257258 -54.710868 44.134696 159.639266 -69.972761 102.395006 -14.812323 40.546593 10.036974 -86.294865 60.960402 77.857444 -7.453898 26.653685 6.416391 -145.117767 0.102679 -179.161357 -132.8201 -65.962699 -154.757265 -110.053645 -41.782223 -108.127645 -40.526879 -49.030885 -41.992633 157.846995 -65.803774 -175.511921 176.466799 3.313756 130.426073 47.79518 -80.09786 -3.883761 6.250902 40.431687 -4.060639 -6.465143 -6.452059 0.635308 0.592445 -1.486977 3.997768 0.32656 0.530475 -0.184383 177.879656 -34.333806 -106.353723 17.369856 35.63206 -12.95489 -3.611788 -0.744531 0.082614 145.118682 0.226716 179.199389 15.734459 -68.126438 36.861889 23.393269 -36.348603 22.494279 151.716535 29.354759 146.935854 -179.998919 75.749538 -0.001115 164.232835 38.495204 -155.600217 -47.423067 -67.879777 -33.487749 89.698871 -30.665215 -174.526724 -0.000988 0.000104 -0.000494 30.285977 -42.496353 21.986891 -26.385377 64.566564 -52.950335 -86.404549 82.982428 171.140843
-42.6529 72.9433 -47.0433 179.683117 49.007805 -167.980779 2.39918 3.433283 145.022291 -5.246717 1.099335 -148.654408 -10.58809 21.057438 -81.219097 40.749334 -1.122926 81.853165 -0.001889 0.0 -0.002279 0.003795 -0.0 -0.003003 -0.049046 0.2924 0.064937 -104.986633 -8.479616 -152.437669 174.435306 -18.322971 -83.66081 -15.184648 -30.97085 -7.724445 -171.140163 -8.822886 89.951417 6.289675 -57.08809 11.330255 0.184668 -0.300326 -0.104697 152.789092 -54.577531 88.646189 6.532186 -20.415027 -2.719481 -179.753962 -48.717433 141.453826 -145.099945 -1.521388 -178.650734 -152.248643 -25.058624 -175.335203 -157.332253 57.246105 -150.511386 22.640011 61.221025 6.232212 149.851192 22.601793 -154.913924 119.891752 75.314913 -70.248579 -155.947421 -87.477336 -61.622756 -150.643459 -41.535431 -136.145468 93.743428 37.96367 -53.548708 4.539685 -16.595756 -26.9834 179.420847 -58.426495 -117.044929 172.743214 -41.103516 -114.449086 158.5229 -0.192276 -142.144083 -7.585436 -13.027473 0.872793 72.352396 72.976012 -90.217468 -3.088887 45.881196 -2.792904 -9.599386 31.055797 -8.344236 150.123611 19.112231 145.163155 -0.002628 -0.00028 -0.002628 -17.730169 -35.531912 -64.285718 -67.13795 41.40469 164.116391 11.056506 29.674114 -110.211534 -0.002628 -0.00028 -0.002628 24.627547 -44.178586 33.336834 26.254511 68.309719 122.02479 -13.913714 7.83905 -123.194948
